<svg viewBox="0 0 50 56" fill="none" xmlns="http://www.w3.org/2000/svg">
<path fill-rule="evenodd" clip-rule="evenodd" d="M24.4399 0.0886519C24.0853 0.200652 23.4599 0.611319 23.2033 0.895985C23.0866 1.02665 22.9139 1.29265 22.8159 1.48865L22.6433 1.84332L22.6199 4.82999C22.5919 8.14332 22.6059 8.02665 22.2839 8.19465C22.0226 8.32998 21.8546 8.26465 20.4826 7.49465C19.7733 7.09798 19.0966 6.74798 18.9799 6.72465C18.6673 6.64998 18.0979 6.66398 17.8086 6.74798C16.2499 7.20532 15.7506 9.25398 16.9033 10.4347C17.0946 10.6307 17.5566 10.9107 19.3766 11.9467C20.6086 12.642 21.6959 13.2907 21.7986 13.3887C22.0413 13.6173 22.2699 13.9767 22.3819 14.3173C22.4753 14.5833 22.4799 14.714 22.4799 16.1747C22.4799 17.528 22.4706 17.766 22.4053 17.9013C22.2979 18.1253 22.1719 18.2 21.9013 18.2C21.6959 18.2 21.5326 18.1253 20.1886 17.402C19.3719 16.968 18.6346 16.5947 18.5459 16.5807C18.3359 16.548 18.0933 16.6647 17.9766 16.8607C17.8879 17.0007 17.8833 17.1127 17.8739 18.6993C17.8646 20.5147 17.8553 20.5707 17.6173 20.7387C17.4726 20.8413 17.1926 20.832 16.9593 20.7153C16.8519 20.6593 16.2266 20.3093 15.5733 19.936C14.2153 19.1567 13.9773 18.97 13.7299 18.4613C13.4639 17.9247 13.4593 17.8267 13.4919 15.12C13.5106 13.4913 13.5059 12.586 13.4733 12.4133C13.4453 12.2733 13.3519 12.0027 13.2633 11.816C13.0439 11.3493 12.7313 11.0553 12.1479 10.7567L11.6906 10.5233H11.1679C10.6733 10.5233 10.6313 10.5327 10.3326 10.6773C9.90794 10.8873 9.59528 11.214 9.35261 11.704L9.15661 12.1007L9.13328 13.762C9.10994 15.3067 9.10528 15.4327 9.01661 15.5727C8.89061 15.7873 8.66194 15.89 8.42861 15.8293C8.33061 15.806 7.19194 15.176 5.90394 14.4293C4.61128 13.6873 3.49594 13.048 3.41661 13.0107C3.14594 12.8753 2.78661 12.8193 2.33394 12.8427C1.90928 12.866 1.86728 12.88 1.36328 13.1273C0.938611 13.342 0.789278 13.4447 0.579278 13.6687C0.439278 13.8227 0.261945 14.07 0.187278 14.2193C0.0566115 14.4853 0.0566115 14.504 0.0566115 15.3067V16.128L0.229278 16.4733C0.527945 17.08 0.583945 17.1173 3.22994 18.5547C4.54128 19.264 5.67528 19.8847 5.75928 19.9407C6.09061 20.1647 6.15128 20.5193 5.90394 20.776C5.81994 20.86 5.20394 21.2333 4.54128 21.6067C3.17394 22.372 2.98728 22.5213 2.70261 23.0953L2.52994 23.4453V24.0987C2.52994 24.7427 2.53461 24.766 2.67928 25.0693C2.88461 25.5033 3.19728 25.8253 3.62661 26.04C4.18194 26.32 4.67194 26.3807 5.25994 26.2453C5.53528 26.1847 5.90394 25.984 7.86861 24.8267C9.46461 23.8933 10.2346 23.464 10.4073 23.422C10.7806 23.3333 11.3499 23.352 11.6533 23.4687C11.7933 23.5247 12.4746 23.898 13.1699 24.2993C14.5559 25.1113 14.6679 25.2047 14.6259 25.5407C14.6119 25.6387 14.5513 25.7787 14.4906 25.858C14.4299 25.9327 13.7953 26.362 13.0766 26.8053C11.6859 27.6687 11.5599 27.7713 11.5599 28.0933C11.5599 28.434 11.6533 28.504 13.4033 29.512C14.3039 30.03 15.1206 30.4967 15.2186 30.5573L15.4006 30.6647L15.2186 30.7953C14.8873 31.038 12.1013 32.634 11.8539 32.718C11.5273 32.8347 10.8366 32.8347 10.5053 32.7227C10.3793 32.676 9.28728 32.06 8.07861 31.346C6.87461 30.6367 5.79194 30.0207 5.67994 29.9833C5.38128 29.876 4.89128 29.8433 4.55061 29.9087C4.16328 29.9833 3.52861 30.3287 3.21594 30.6273C3.05728 30.7813 2.90328 31.0007 2.79594 31.22L2.62328 31.5653V32.2467C2.62328 32.9187 2.62328 32.928 2.77728 33.2407C3.06194 33.8147 3.22061 33.9313 4.68128 34.664C6.00661 35.3313 6.21661 35.4667 6.26328 35.7233C6.29594 35.882 6.16994 36.12 5.99728 36.232C5.93661 36.2693 4.77928 36.9086 3.41661 37.6506C0.644612 39.1673 0.527945 39.242 0.243278 39.8253C0.0379449 40.2313 -0.0367218 40.6886 0.0052782 41.2626C0.0379449 41.7293 0.149945 42.07 0.383278 42.3826C0.616612 42.7046 0.896611 42.8866 1.54061 43.1433C2.10061 43.3673 2.11461 43.372 2.62328 43.372C3.02461 43.3673 3.19728 43.3486 3.41661 43.2693C3.57061 43.218 4.77461 42.5646 6.09528 41.818C7.52328 41.0153 8.56861 40.4553 8.67128 40.4366C8.89528 40.3993 9.07261 40.4786 9.21261 40.6886C9.31994 40.8473 9.31994 40.866 9.31994 42.2613C9.31994 43.1293 9.33861 43.7733 9.37128 43.9226C9.54394 44.7393 10.1459 45.4393 10.8366 45.6166C11.4106 45.7613 11.8959 45.682 12.4699 45.346C12.9226 45.08 13.2446 44.7346 13.4593 44.296L13.6366 43.9366L13.6599 41.1366C13.6879 38.094 13.6693 38.2806 13.9633 37.7066C14.1873 37.268 14.4253 37.086 15.8393 36.2693C17.2346 35.4713 17.4073 35.4013 17.6639 35.532C17.9673 35.6907 17.9719 35.7186 17.9999 37.6833C18.0279 39.6433 18.0233 39.634 18.3266 39.76C18.4386 39.8066 18.5133 39.8066 18.6439 39.7693C18.7419 39.7366 19.4559 39.3073 20.2353 38.8033C21.0146 38.304 21.7286 37.8746 21.8313 37.8466C22.0786 37.7766 22.2979 37.8746 22.4006 38.094C22.4706 38.2386 22.4799 38.458 22.4799 39.8253C22.4799 41.286 22.4753 41.4166 22.3819 41.6826C22.2699 42.0233 22.0413 42.3826 21.7986 42.6113C21.6959 42.7046 20.6086 43.3533 19.3766 44.0533C17.7526 44.9726 17.0759 45.3786 16.9173 45.5326C16.2453 46.1906 16.0773 47.3153 16.5253 48.1973C16.6746 48.4913 17.0293 48.8786 17.2859 49.028C17.7759 49.3173 18.4946 49.4106 19.0313 49.252C19.1713 49.21 19.8433 48.86 20.5339 48.4773C21.8546 47.7353 22.0273 47.67 22.2839 47.8053C22.6059 47.9733 22.5919 47.8566 22.6199 51.17L22.6433 54.1566L22.8113 54.5066C23.0259 54.9453 23.2873 55.244 23.7306 55.5426C24.2159 55.8693 24.4399 55.958 24.8553 55.986C25.3313 56.0186 25.6579 55.9253 26.1666 55.6033C26.7686 55.2253 27.0533 54.894 27.2913 54.2966L27.4033 54.0166L27.4266 51.0533C27.4453 48.5333 27.4593 48.076 27.5199 47.9826C27.6226 47.8286 27.8746 47.726 28.0659 47.754C28.1593 47.7726 28.7566 48.0806 29.3959 48.44C30.7819 49.2286 30.8613 49.266 31.3093 49.3313C31.7806 49.4013 32.2006 49.3313 32.6393 49.1166C33.0453 48.916 33.3019 48.6406 33.5259 48.174C33.8106 47.586 33.7919 46.7366 33.4839 46.1066C33.2039 45.5326 33.0499 45.4253 30.6233 44.058C28.1593 42.672 28.0099 42.56 27.7019 41.93L27.5433 41.6033L27.5293 39.9373C27.5199 38.5466 27.5293 38.248 27.5853 38.108C27.6739 37.898 27.9073 37.7766 28.1359 37.8186C28.2246 37.8326 28.9246 38.2293 29.6946 38.696C30.9406 39.452 31.1133 39.5453 31.3326 39.564C31.5426 39.5826 31.5893 39.5686 31.6873 39.466C31.8833 39.27 31.9066 39.0833 31.9066 37.506C31.9066 35.896 31.9206 35.784 32.1586 35.63C32.2473 35.5693 32.3453 35.5553 32.5039 35.5693C32.6906 35.588 32.9893 35.7373 34.1933 36.428C35.0706 36.9273 35.7333 37.3333 35.8406 37.4406C36.0926 37.6926 36.2793 38.01 36.3866 38.3553C36.4753 38.6306 36.4799 38.7986 36.4799 41.2486C36.4799 43.2926 36.4939 43.8946 36.5453 44.0813C36.6433 44.4546 36.8859 44.87 37.1613 45.1266C38.0479 45.962 39.4246 45.9293 40.2926 45.0473C40.5726 44.7626 40.7919 44.338 40.8619 43.9413C40.8899 43.7826 40.9133 43.0873 40.9133 42.3406C40.9133 40.922 40.9273 40.8333 41.1559 40.6746C41.2119 40.6326 41.3566 40.6 41.4733 40.6C41.6646 40.6 41.9026 40.726 43.9466 41.888C45.1926 42.5926 46.3359 43.2133 46.4853 43.2646C46.8819 43.4 47.5493 43.4 47.9553 43.26C48.7766 42.9846 49.3086 42.5973 49.5559 42.084C49.7286 41.7386 49.7753 41.4913 49.7799 41.0153C49.7799 40.4786 49.7193 40.1753 49.5279 39.7833C49.2526 39.228 49.1219 39.1346 46.5786 37.618C44.1379 36.1666 44.0399 36.0967 44.0399 35.784C44.0399 35.588 44.1519 35.406 44.3526 35.2707C44.4506 35.21 44.9779 34.9067 45.5286 34.5987C46.6299 33.9827 46.7979 33.8613 47.0453 33.4833C47.3066 33.0913 47.3999 32.774 47.3999 32.27C47.3999 31.416 47.0453 30.716 46.3826 30.268C45.9066 29.946 45.3373 29.8387 44.7866 29.9647C44.6653 29.9927 43.6013 30.5573 42.2433 31.3133C40.6239 32.2187 39.8259 32.6387 39.6299 32.69C39.2893 32.774 38.7759 32.7787 38.4586 32.6993C38.0946 32.606 35.5093 31.2433 35.3273 31.052C35.1266 30.8467 35.1173 30.5947 35.2946 30.3847C35.3599 30.3053 35.9293 29.9507 36.6573 29.5353C37.3433 29.1433 37.9733 28.7747 38.0573 28.714C38.3933 28.462 38.4353 28.0607 38.1506 27.79C38.0666 27.706 37.4599 27.3093 36.8066 26.9033C36.1533 26.4973 35.5653 26.1193 35.5093 26.068C35.1826 25.7787 35.1919 25.41 35.5326 25.102C35.7566 24.8967 38.1226 23.4127 38.4166 23.296C38.7433 23.1607 39.3546 23.142 39.7093 23.254C39.8306 23.2913 40.9226 23.912 42.1359 24.626C43.3493 25.3447 44.4319 25.9793 44.5393 26.0353C44.8379 26.1847 45.3699 26.2547 45.7713 26.194C47.4699 25.928 48.1419 23.7067 46.8913 22.456C46.6813 22.2413 46.4106 22.0687 45.4913 21.5647C44.8659 21.2193 44.2826 20.8787 44.1986 20.804C43.9419 20.5753 43.9419 20.216 44.1939 19.9827C44.2499 19.9313 45.3793 19.278 46.6999 18.5267C49.3786 17.01 49.4673 16.9447 49.7706 16.338L49.9433 15.988V15.26V14.532L49.7706 14.182C49.6726 13.986 49.5139 13.734 49.4066 13.6173C49.1733 13.3513 48.5993 12.9873 48.2306 12.8753C47.8899 12.768 47.2786 12.7587 46.9519 12.8567C46.8259 12.894 45.6079 13.5287 44.2499 14.2613C42.1266 15.414 41.7439 15.6053 41.5386 15.624C41.2586 15.6473 41.1279 15.5913 41.0066 15.386C40.9179 15.246 40.9133 15.1387 40.9133 13.762C40.9133 12.1847 40.8899 11.928 40.6939 11.5267C40.3766 10.8733 39.6859 10.4673 38.8133 10.4207C38.2579 10.388 37.9033 10.4533 37.4739 10.6633C37.0773 10.8593 36.8113 11.1347 36.6013 11.5733L36.4566 11.8767L36.4333 14.98C36.4099 18.0833 36.4099 18.0833 36.3026 18.3353C36.1719 18.6433 35.9853 18.914 35.7473 19.1427C35.5326 19.3527 32.9333 20.79 32.6206 20.874C32.4386 20.9207 32.3919 20.916 32.2426 20.8367C31.9113 20.6593 31.9066 20.636 31.9066 18.6667C31.9066 17.052 31.8973 16.9027 31.8179 16.7207C31.7059 16.478 31.5799 16.408 31.3046 16.436C31.1226 16.4547 30.8566 16.5993 29.6946 17.304C28.9246 17.7707 28.2246 18.1673 28.1359 18.1813C27.9073 18.2233 27.6739 18.102 27.5853 17.892C27.5293 17.752 27.5199 17.4533 27.5293 16.0627L27.5433 14.3967L27.7019 14.07C28.0099 13.44 28.1499 13.3373 30.7119 11.9C32.0466 11.1487 33.0826 10.5327 33.2133 10.4207C34.3753 9.38465 34.0346 7.57398 32.5459 6.83665C32.2659 6.69665 32.1306 6.65932 31.8319 6.64065C31.2159 6.59865 31.0806 6.64998 29.6573 7.43865C28.9479 7.83532 28.2993 8.18065 28.2153 8.20865C27.9539 8.29732 27.8139 8.27398 27.6226 8.10132L27.4499 7.94265L27.4266 4.96065C27.3986 1.73132 27.4173 1.92732 27.1326 1.37199C26.9553 1.02199 26.6566 0.713985 26.2179 0.429319C25.5646 0.00931857 25.0186 -0.0980148 24.4399 0.0886519Z" fill="url(#paint0_linear_6_89)"/>
<defs>
<linearGradient id="paint0_linear_6_89" x1="24.9686" y1="55.9921" x2="24.9686" y2="0.000347137" gradientUnits="userSpaceOnUse">
<stop stop-color="#60BCED"/>
<stop offset="1" stop-color="#5F93AE"/>
</linearGradient>
</defs>
</svg>
