<svg width="56" height="56" viewBox="0 0 56 56" fill="none" xmlns="http://www.w3.org/2000/svg">
<mask id="mask0_335_10" style="mask-type:luminance" maskUnits="userSpaceOnUse" x="2" y="0" width="51" height="56">
<path fill-rule="evenodd" clip-rule="evenodd" d="M27.44 0.0887899C27.0854 0.200789 26.46 0.611453 26.2034 0.896121C26.0867 1.02679 25.914 1.29279 25.816 1.48879L25.6434 1.84346L25.62 4.83013C25.592 8.14346 25.606 8.02679 25.284 8.19479C25.0227 8.33013 24.8547 8.26479 23.4827 7.49479C22.7734 7.09812 22.0967 6.74813 21.98 6.72479C21.6674 6.65013 21.098 6.66413 20.8087 6.74813C19.25 7.20546 18.7507 9.25413 19.9034 10.4348C20.0947 10.6308 20.5567 10.9108 22.3767 11.9468C23.6087 12.6421 24.696 13.2908 24.7987 13.3888C25.0414 13.6174 25.27 13.9768 25.382 14.3174C25.4754 14.5834 25.48 14.7141 25.48 16.1748C25.48 17.5281 25.4707 17.7661 25.4054 17.9014C25.298 18.1254 25.172 18.2001 24.9014 18.2001C24.696 18.2001 24.5327 18.1254 23.1887 17.4021C22.372 16.9681 21.6347 16.5948 21.546 16.5808C21.336 16.5481 21.0934 16.6647 20.9767 16.8608C20.888 17.0008 20.8834 17.1128 20.874 18.6994C20.8647 20.5148 20.8554 20.5708 20.6174 20.7388C20.4727 20.8414 20.1927 20.8321 19.9594 20.7154C19.852 20.6594 19.2267 20.3094 18.5734 19.9361C17.2154 19.1568 16.9774 18.9701 16.73 18.4614C16.464 17.9248 16.4594 17.8268 16.492 15.1201C16.5107 13.4914 16.506 12.5861 16.4734 12.4134C16.4454 12.2734 16.352 12.0028 16.2634 11.8161C16.044 11.3494 15.7314 11.0554 15.148 10.7568L14.6907 10.5234H14.168C13.6734 10.5234 13.6314 10.5327 13.3327 10.6774C12.908 10.8874 12.5954 11.2141 12.3527 11.7041L12.1567 12.1008L12.1334 13.7621C12.11 15.3068 12.1054 15.4328 12.0167 15.5728C11.8907 15.7874 11.662 15.8901 11.4287 15.8294C11.3307 15.8061 10.192 15.1761 8.90406 14.4294C7.6114 13.6874 6.49606 13.0481 6.41673 13.0108C6.14606 12.8754 5.78673 12.8194 5.33406 12.8428C4.9094 12.8661 4.8674 12.8801 4.3634 13.1274C3.93873 13.3421 3.7894 13.4448 3.5794 13.6688C3.4394 13.8228 3.26206 14.0701 3.1874 14.2194C3.05673 14.4854 3.05673 14.5041 3.05673 15.3068V16.1281L3.2294 16.4734C3.52806 17.0801 3.58406 17.1174 6.23006 18.5547C7.5414 19.2641 8.6754 19.8848 8.7594 19.9408C9.09073 20.1647 9.1514 20.5194 8.90406 20.7761C8.82006 20.8601 8.20406 21.2334 7.5414 21.6068C6.17406 22.3721 5.9874 22.5214 5.70273 23.0954L5.53006 23.4454V24.0988C5.53006 24.7428 5.53473 24.7661 5.6794 25.0694C5.88473 25.5034 6.1974 25.8254 6.62673 26.0401C7.18206 26.3201 7.67207 26.3808 8.26006 26.2454C8.5354 26.1848 8.90406 25.9841 10.8687 24.8268C12.4647 23.8934 13.2347 23.4641 13.4074 23.4221C13.7807 23.3334 14.35 23.3521 14.6534 23.4688C14.7934 23.5248 15.4747 23.8981 16.17 24.2994C17.556 25.1114 17.668 25.2048 17.626 25.5408C17.612 25.6388 17.5514 25.7788 17.4907 25.8581C17.43 25.9328 16.7954 26.3621 16.0767 26.8054C14.686 27.6688 14.56 27.7714 14.56 28.0934C14.56 28.4341 14.6534 28.5041 16.4034 29.5121C17.304 30.0301 18.1207 30.4968 18.2187 30.5574L18.4007 30.6647L18.2187 30.7954C17.8874 31.0381 15.1014 32.6341 14.854 32.7181C14.5274 32.8348 13.8367 32.8348 13.5054 32.7228C13.3794 32.6761 12.2874 32.0601 11.0787 31.3461C9.87473 30.6368 8.79206 30.0208 8.68006 29.9834C8.3814 29.8761 7.8914 29.8434 7.55073 29.9088C7.1634 29.9834 6.52873 30.3288 6.21606 30.6274C6.0574 30.7814 5.9034 31.0008 5.79606 31.2201L5.6234 31.5654V32.2468C5.6234 32.9188 5.6234 32.9281 5.7774 33.2408C6.06206 33.8148 6.22073 33.9314 7.6814 34.6641C9.00673 35.3314 9.21673 35.4668 9.2634 35.7234C9.29606 35.8821 9.17006 36.1201 8.9974 36.2321C8.93673 36.2694 7.7794 36.9087 6.41673 37.6508C3.64473 39.1674 3.52806 39.2421 3.2434 39.8254C3.03806 40.2314 2.9634 40.6887 3.0054 41.2627C3.03806 41.7294 3.15006 42.0701 3.3834 42.3827C3.61673 42.7047 3.89673 42.8867 4.54073 43.1434C5.10073 43.3674 5.11473 43.3721 5.6234 43.3721C6.02473 43.3674 6.1974 43.3487 6.41673 43.2694C6.57073 43.2181 7.77473 42.5647 9.0954 41.8181C10.5234 41.0154 11.5687 40.4554 11.6714 40.4367C11.8954 40.3994 12.0727 40.4787 12.2127 40.6887C12.32 40.8474 12.32 40.8661 12.32 42.2614C12.32 43.1294 12.3387 43.7734 12.3714 43.9227C12.544 44.7394 13.146 45.4394 13.8367 45.6167C14.4107 45.7614 14.896 45.6821 15.47 45.3461C15.9227 45.0801 16.2447 44.7347 16.4594 44.2961L16.6367 43.9367L16.66 41.1367C16.688 38.0941 16.6694 38.2807 16.9634 37.7067C17.1874 37.2681 17.4254 37.0861 18.8394 36.2694C20.2347 35.4714 20.4074 35.4014 20.664 35.5321C20.9674 35.6908 20.972 35.7187 21 37.6834C21.028 39.6434 21.0234 39.6341 21.3267 39.7601C21.4387 39.8068 21.5134 39.8068 21.644 39.7694C21.742 39.7367 22.456 39.3074 23.2354 38.8034C24.0147 38.3041 24.7287 37.8747 24.8314 37.8467C25.0787 37.7767 25.298 37.8747 25.4007 38.0941C25.4707 38.2387 25.48 38.4581 25.48 39.8254C25.48 41.2861 25.4754 41.4167 25.382 41.6827C25.27 42.0234 25.0414 42.3827 24.7987 42.6114C24.696 42.7047 23.6087 43.3534 22.3767 44.0534C20.7527 44.9727 20.076 45.3787 19.9174 45.5327C19.2454 46.1907 19.0774 47.3154 19.5254 48.1974C19.6747 48.4914 20.0294 48.8787 20.286 49.0281C20.776 49.3174 21.4947 49.4107 22.0314 49.2521C22.1714 49.2101 22.8434 48.8601 23.534 48.4774C24.8547 47.7354 25.0274 47.6701 25.284 47.8054C25.606 47.9734 25.592 47.8567 25.62 51.1701L25.6434 54.1567L25.8114 54.5067C26.026 54.9454 26.2874 55.2441 26.7307 55.5427C27.216 55.8694 27.44 55.9581 27.8554 55.9861C28.3314 56.0187 28.658 55.9254 29.1667 55.6034C29.7687 55.2254 30.0534 54.8941 30.2914 54.2967L30.4034 54.0167L30.4267 51.0534C30.4454 48.5334 30.4594 48.0761 30.52 47.9827C30.6227 47.8287 30.8747 47.7261 31.066 47.7541C31.1594 47.7727 31.7567 48.0807 32.396 48.4401C33.782 49.2287 33.8614 49.2661 34.3094 49.3314C34.7807 49.4014 35.2007 49.3314 35.6394 49.1167C36.0454 48.9161 36.302 48.6407 36.526 48.1741C36.8107 47.5861 36.792 46.7367 36.484 46.1067C36.204 45.5327 36.05 45.4254 33.6234 44.0581C31.1594 42.6721 31.01 42.5601 30.702 41.9301L30.5434 41.6034L30.5294 39.9374C30.52 38.5467 30.5294 38.2481 30.5854 38.1081C30.674 37.8981 30.9074 37.7767 31.136 37.8187C31.2247 37.8327 31.9247 38.2294 32.6947 38.6961C33.9407 39.4521 34.1134 39.5454 34.3327 39.5641C34.5427 39.5827 34.5894 39.5687 34.6874 39.4661C34.8834 39.2701 34.9067 39.0834 34.9067 37.5061C34.9067 35.8961 34.9207 35.7841 35.1587 35.6301C35.2474 35.5694 35.3454 35.5554 35.504 35.5694C35.6907 35.5881 35.9894 35.7374 37.1934 36.4281C38.0707 36.9274 38.7334 37.3334 38.8407 37.4407C39.0927 37.6927 39.2794 38.0101 39.3867 38.3554C39.4754 38.6307 39.48 38.7987 39.48 41.2487C39.48 43.2927 39.494 43.8947 39.5454 44.0814C39.6434 44.4547 39.886 44.8701 40.1614 45.1267C41.048 45.9621 42.4247 45.9294 43.2927 45.0474C43.5727 44.7627 43.792 44.3381 43.862 43.9414C43.89 43.7827 43.9134 43.0874 43.9134 42.3407C43.9134 40.9221 43.9274 40.8334 44.156 40.6747C44.212 40.6327 44.3567 40.6001 44.4734 40.6001C44.6647 40.6001 44.9027 40.7261 46.9467 41.8881C48.1927 42.5927 49.336 43.2134 49.4854 43.2647C49.882 43.4001 50.5494 43.4001 50.9554 43.2601C51.7767 42.9847 52.3087 42.5974 52.556 42.0841C52.7287 41.7387 52.7754 41.4914 52.78 41.0154C52.78 40.4787 52.7194 40.1754 52.528 39.7834C52.2527 39.2281 52.122 39.1347 49.5787 37.6181C47.138 36.1667 47.04 36.0968 47.04 35.7841C47.04 35.5881 47.152 35.4061 47.3527 35.2708C47.4507 35.2101 47.978 34.9068 48.5287 34.5987C49.63 33.9828 49.798 33.8614 50.0454 33.4834C50.3067 33.0914 50.4 32.7741 50.4 32.2701C50.4 31.4161 50.0454 30.7161 49.3827 30.2681C48.9067 29.9461 48.3374 29.8388 47.7867 29.9648C47.6654 29.9928 46.6014 30.5574 45.2434 31.3134C43.624 32.2188 42.826 32.6388 42.63 32.6901C42.2894 32.7741 41.776 32.7788 41.4587 32.6994C41.0947 32.6061 38.5094 31.2434 38.3274 31.0521C38.1267 30.8468 38.1174 30.5948 38.2947 30.3848C38.36 30.3054 38.9294 29.9508 39.6574 29.5354C40.3434 29.1434 40.9734 28.7748 41.0574 28.7141C41.3934 28.4621 41.4354 28.0608 41.1507 27.7901C41.0667 27.7061 40.46 27.3094 39.8067 26.9034C39.1534 26.4974 38.5654 26.1194 38.5094 26.0681C38.1827 25.7788 38.192 25.4101 38.5327 25.1021C38.7567 24.8968 41.1227 23.4128 41.4167 23.2961C41.7434 23.1608 42.3547 23.1421 42.7094 23.2541C42.8307 23.2914 43.9227 23.9121 45.136 24.6261C46.3494 25.3448 47.432 25.9794 47.5394 26.0354C47.838 26.1848 48.37 26.2548 48.7714 26.1941C50.47 25.9281 51.142 23.7067 49.8914 22.4561C49.6814 22.2414 49.4107 22.0687 48.4914 21.5648C47.866 21.2194 47.2827 20.8788 47.1987 20.8041C46.942 20.5754 46.942 20.2161 47.194 19.9828C47.25 19.9314 48.3794 19.2781 49.7 18.5267C52.3787 17.0101 52.4674 16.9448 52.7707 16.3381L52.9434 15.9881V15.2601V14.5321L52.7707 14.1821C52.6727 13.9861 52.514 13.7341 52.4067 13.6174C52.1734 13.3514 51.5994 12.9874 51.2307 12.8754C50.89 12.7681 50.2787 12.7588 49.952 12.8568C49.826 12.8941 48.608 13.5288 47.25 14.2614C45.1267 15.4141 44.744 15.6054 44.5387 15.6241C44.2587 15.6474 44.128 15.5914 44.0067 15.3861C43.918 15.2461 43.9134 15.1388 43.9134 13.7621C43.9134 12.1848 43.89 11.9281 43.694 11.5268C43.3767 10.8734 42.686 10.4674 41.8134 10.4208C41.258 10.3881 40.9034 10.4534 40.474 10.6634C40.0774 10.8594 39.8114 11.1348 39.6014 11.5734L39.4567 11.8768L39.4334 14.9801C39.41 18.0834 39.41 18.0834 39.3027 18.3354C39.172 18.6434 38.9854 18.9141 38.7474 19.1428C38.5327 19.3527 35.9334 20.7901 35.6207 20.8741C35.4387 20.9208 35.392 20.9161 35.2427 20.8368C34.9114 20.6594 34.9067 20.6361 34.9067 18.6668C34.9067 17.0521 34.8974 16.9028 34.818 16.7207C34.706 16.4781 34.58 16.4081 34.3047 16.4361C34.1227 16.4548 33.8567 16.5994 32.6947 17.3041C31.9247 17.7708 31.2247 18.1674 31.136 18.1814C30.9074 18.2234 30.674 18.1021 30.5854 17.8921C30.5294 17.7521 30.52 17.4534 30.5294 16.0628L30.5434 14.3968L30.702 14.0701C31.01 13.4401 31.15 13.3374 33.712 11.9001C35.0467 11.1488 36.0827 10.5327 36.2134 10.4208C37.3754 9.38479 37.0347 7.57413 35.546 6.83679C35.266 6.69679 35.1307 6.65946 34.832 6.64079C34.216 6.59879 34.0807 6.65013 32.6574 7.43879C31.948 7.83546 31.2994 8.18079 31.2154 8.20879C30.954 8.29746 30.814 8.27413 30.6227 8.10146L30.45 7.94279L30.4267 4.96079C30.3987 1.73146 30.4174 1.92746 30.1327 1.37213C29.9554 1.02212 29.6567 0.714121 29.218 0.429453C28.5647 0.00945556 28.0187 -0.0978785 27.44 0.0887899Z" fill="white"/>
</mask>
<g mask="url(#mask0_335_10)">
<path fill-rule="evenodd" clip-rule="evenodd" d="M27.44 0.0887899C27.0854 0.200789 26.46 0.611453 26.2034 0.896121C26.0867 1.02679 25.914 1.29279 25.816 1.48879L25.6434 1.84346L25.62 4.83013C25.592 8.14346 25.606 8.02679 25.284 8.19479C25.0227 8.33013 24.8547 8.26479 23.4827 7.49479C22.7734 7.09812 22.0967 6.74813 21.98 6.72479C21.6674 6.65013 21.098 6.66413 20.8087 6.74813C19.25 7.20546 18.7507 9.25413 19.9034 10.4348C20.0947 10.6308 20.5567 10.9108 22.3767 11.9468C23.6087 12.6421 24.696 13.2908 24.7987 13.3888C25.0414 13.6174 25.27 13.9768 25.382 14.3174C25.4754 14.5834 25.48 14.7141 25.48 16.1748C25.48 17.5281 25.4707 17.7661 25.4054 17.9014C25.298 18.1254 25.172 18.2001 24.9014 18.2001C24.696 18.2001 24.5327 18.1254 23.1887 17.4021C22.372 16.9681 21.6347 16.5948 21.546 16.5808C21.336 16.5481 21.0934 16.6647 20.9767 16.8608C20.888 17.0008 20.8834 17.1128 20.874 18.6994C20.8647 20.5148 20.8554 20.5708 20.6174 20.7388C20.4727 20.8414 20.1927 20.8321 19.9594 20.7154C19.852 20.6594 19.2267 20.3094 18.5734 19.9361C17.2154 19.1568 16.9774 18.9701 16.73 18.4614C16.464 17.9248 16.4594 17.8268 16.492 15.1201C16.5107 13.4914 16.506 12.5861 16.4734 12.4134C16.4454 12.2734 16.352 12.0028 16.2634 11.8161C16.044 11.3494 15.7314 11.0554 15.148 10.7568L14.6907 10.5234H14.168C13.6734 10.5234 13.6314 10.5327 13.3327 10.6774C12.908 10.8874 12.5954 11.2141 12.3527 11.7041L12.1567 12.1008L12.1334 13.7621C12.11 15.3068 12.1054 15.4328 12.0167 15.5728C11.8907 15.7874 11.662 15.8901 11.4287 15.8294C11.3307 15.8061 10.192 15.1761 8.90406 14.4294C7.6114 13.6874 6.49606 13.0481 6.41673 13.0108C6.14606 12.8754 5.78673 12.8194 5.33406 12.8428C4.9094 12.8661 4.8674 12.8801 4.3634 13.1274C3.93873 13.3421 3.7894 13.4448 3.5794 13.6688C3.4394 13.8228 3.26206 14.0701 3.1874 14.2194C3.05673 14.4854 3.05673 14.5041 3.05673 15.3068V16.1281L3.2294 16.4734C3.52806 17.0801 3.58406 17.1174 6.23006 18.5547C7.5414 19.2641 8.6754 19.8848 8.7594 19.9408C9.09073 20.1647 9.1514 20.5194 8.90406 20.7761C8.82006 20.8601 8.20406 21.2334 7.5414 21.6068C6.17406 22.3721 5.9874 22.5214 5.70273 23.0954L5.53006 23.4454V24.0988C5.53006 24.7428 5.53473 24.7661 5.6794 25.0694C5.88473 25.5034 6.1974 25.8254 6.62673 26.0401C7.18206 26.3201 7.67207 26.3808 8.26006 26.2454C8.5354 26.1848 8.90406 25.9841 10.8687 24.8268C12.4647 23.8934 13.2347 23.4641 13.4074 23.4221C13.7807 23.3334 14.35 23.3521 14.6534 23.4688C14.7934 23.5248 15.4747 23.8981 16.17 24.2994C17.556 25.1114 17.668 25.2048 17.626 25.5408C17.612 25.6388 17.5514 25.7788 17.4907 25.8581C17.43 25.9328 16.7954 26.3621 16.0767 26.8054C14.686 27.6688 14.56 27.7714 14.56 28.0934C14.56 28.4341 14.6534 28.5041 16.4034 29.5121C17.304 30.0301 18.1207 30.4968 18.2187 30.5574L18.4007 30.6647L18.2187 30.7954C17.8874 31.0381 15.1014 32.6341 14.854 32.7181C14.5274 32.8348 13.8367 32.8348 13.5054 32.7228C13.3794 32.6761 12.2874 32.0601 11.0787 31.3461C9.87473 30.6368 8.79206 30.0208 8.68006 29.9834C8.3814 29.8761 7.8914 29.8434 7.55073 29.9088C7.1634 29.9834 6.52873 30.3288 6.21606 30.6274C6.0574 30.7814 5.9034 31.0008 5.79606 31.2201L5.6234 31.5654V32.2468C5.6234 32.9188 5.6234 32.9281 5.7774 33.2408C6.06206 33.8148 6.22073 33.9314 7.6814 34.6641C9.00673 35.3314 9.21673 35.4668 9.2634 35.7234C9.29606 35.8821 9.17006 36.1201 8.9974 36.2321C8.93673 36.2694 7.7794 36.9087 6.41673 37.6508C3.64473 39.1674 3.52806 39.2421 3.2434 39.8254C3.03806 40.2314 2.9634 40.6887 3.0054 41.2627C3.03806 41.7294 3.15006 42.0701 3.3834 42.3827C3.61673 42.7047 3.89673 42.8867 4.54073 43.1434C5.10073 43.3674 5.11473 43.3721 5.6234 43.3721C6.02473 43.3674 6.1974 43.3487 6.41673 43.2694C6.57073 43.2181 7.77473 42.5647 9.0954 41.8181C10.5234 41.0154 11.5687 40.4554 11.6714 40.4367C11.8954 40.3994 12.0727 40.4787 12.2127 40.6887C12.32 40.8474 12.32 40.8661 12.32 42.2614C12.32 43.1294 12.3387 43.7734 12.3714 43.9227C12.544 44.7394 13.146 45.4394 13.8367 45.6167C14.4107 45.7614 14.896 45.6821 15.47 45.3461C15.9227 45.0801 16.2447 44.7347 16.4594 44.2961L16.6367 43.9367L16.66 41.1367C16.688 38.0941 16.6694 38.2807 16.9634 37.7067C17.1874 37.2681 17.4254 37.0861 18.8394 36.2694C20.2347 35.4714 20.4074 35.4014 20.664 35.5321C20.9674 35.6908 20.972 35.7187 21 37.6834C21.028 39.6434 21.0234 39.6341 21.3267 39.7601C21.4387 39.8068 21.5134 39.8068 21.644 39.7694C21.742 39.7367 22.456 39.3074 23.2354 38.8034C24.0147 38.3041 24.7287 37.8747 24.8314 37.8467C25.0787 37.7767 25.298 37.8747 25.4007 38.0941C25.4707 38.2387 25.48 38.4581 25.48 39.8254C25.48 41.2861 25.4754 41.4167 25.382 41.6827C25.27 42.0234 25.0414 42.3827 24.7987 42.6114C24.696 42.7047 23.6087 43.3534 22.3767 44.0534C20.7527 44.9727 20.076 45.3787 19.9174 45.5327C19.2454 46.1907 19.0774 47.3154 19.5254 48.1974C19.6747 48.4914 20.0294 48.8787 20.286 49.0281C20.776 49.3174 21.4947 49.4107 22.0314 49.2521C22.1714 49.2101 22.8434 48.8601 23.534 48.4774C24.8547 47.7354 25.0274 47.6701 25.284 47.8054C25.606 47.9734 25.592 47.8567 25.62 51.1701L25.6434 54.1567L25.8114 54.5067C26.026 54.9454 26.2874 55.2441 26.7307 55.5427C27.216 55.8694 27.44 55.9581 27.8554 55.9861C28.3314 56.0187 28.658 55.9254 29.1667 55.6034C29.7687 55.2254 30.0534 54.8941 30.2914 54.2967L30.4034 54.0167L30.4267 51.0534C30.4454 48.5334 30.4594 48.0761 30.52 47.9827C30.6227 47.8287 30.8747 47.7261 31.066 47.7541C31.1594 47.7727 31.7567 48.0807 32.396 48.4401C33.782 49.2287 33.8614 49.2661 34.3094 49.3314C34.7807 49.4014 35.2007 49.3314 35.6394 49.1167C36.0454 48.9161 36.302 48.6407 36.526 48.1741C36.8107 47.5861 36.792 46.7367 36.484 46.1067C36.204 45.5327 36.05 45.4254 33.6234 44.0581C31.1594 42.6721 31.01 42.5601 30.702 41.9301L30.5434 41.6034L30.5294 39.9374C30.52 38.5467 30.5294 38.2481 30.5854 38.1081C30.674 37.8981 30.9074 37.7767 31.136 37.8187C31.2247 37.8327 31.9247 38.2294 32.6947 38.6961C33.9407 39.4521 34.1134 39.5454 34.3327 39.5641C34.5427 39.5827 34.5894 39.5687 34.6874 39.4661C34.8834 39.2701 34.9067 39.0834 34.9067 37.5061C34.9067 35.8961 34.9207 35.7841 35.1587 35.6301C35.2474 35.5694 35.3454 35.5554 35.504 35.5694C35.6907 35.5881 35.9894 35.7374 37.1934 36.4281C38.0707 36.9274 38.7334 37.3334 38.8407 37.4407C39.0927 37.6927 39.2794 38.0101 39.3867 38.3554C39.4754 38.6307 39.48 38.7987 39.48 41.2487C39.48 43.2927 39.494 43.8947 39.5454 44.0814C39.6434 44.4547 39.886 44.8701 40.1614 45.1267C41.048 45.9621 42.4247 45.9294 43.2927 45.0474C43.5727 44.7627 43.792 44.3381 43.862 43.9414C43.89 43.7827 43.9134 43.0874 43.9134 42.3407C43.9134 40.9221 43.9274 40.8334 44.156 40.6747C44.212 40.6327 44.3567 40.6001 44.4734 40.6001C44.6647 40.6001 44.9027 40.7261 46.9467 41.8881C48.1927 42.5927 49.336 43.2134 49.4854 43.2647C49.882 43.4001 50.5494 43.4001 50.9554 43.2601C51.7767 42.9847 52.3087 42.5974 52.556 42.0841C52.7287 41.7387 52.7754 41.4914 52.78 41.0154C52.78 40.4787 52.7194 40.1754 52.528 39.7834C52.2527 39.2281 52.122 39.1347 49.5787 37.6181C47.138 36.1667 47.04 36.0968 47.04 35.7841C47.04 35.5881 47.152 35.4061 47.3527 35.2708C47.4507 35.2101 47.978 34.9068 48.5287 34.5987C49.63 33.9828 49.798 33.8614 50.0454 33.4834C50.3067 33.0914 50.4 32.7741 50.4 32.2701C50.4 31.4161 50.0454 30.7161 49.3827 30.2681C48.9067 29.9461 48.3374 29.8388 47.7867 29.9648C47.6654 29.9928 46.6014 30.5574 45.2434 31.3134C43.624 32.2188 42.826 32.6388 42.63 32.6901C42.2894 32.7741 41.776 32.7788 41.4587 32.6994C41.0947 32.6061 38.5094 31.2434 38.3274 31.0521C38.1267 30.8468 38.1174 30.5948 38.2947 30.3848C38.36 30.3054 38.9294 29.9508 39.6574 29.5354C40.3434 29.1434 40.9734 28.7748 41.0574 28.7141C41.3934 28.4621 41.4354 28.0608 41.1507 27.7901C41.0667 27.7061 40.46 27.3094 39.8067 26.9034C39.1534 26.4974 38.5654 26.1194 38.5094 26.0681C38.1827 25.7788 38.192 25.4101 38.5327 25.1021C38.7567 24.8968 41.1227 23.4128 41.4167 23.2961C41.7434 23.1608 42.3547 23.1421 42.7094 23.2541C42.8307 23.2914 43.9227 23.9121 45.136 24.6261C46.3494 25.3448 47.432 25.9794 47.5394 26.0354C47.838 26.1848 48.37 26.2548 48.7714 26.1941C50.47 25.9281 51.142 23.7067 49.8914 22.4561C49.6814 22.2414 49.4107 22.0687 48.4914 21.5648C47.866 21.2194 47.2827 20.8788 47.1987 20.8041C46.942 20.5754 46.942 20.2161 47.194 19.9828C47.25 19.9314 48.3794 19.2781 49.7 18.5267C52.3787 17.0101 52.4674 16.9448 52.7707 16.3381L52.9434 15.9881V15.2601V14.5321L52.7707 14.1821C52.6727 13.9861 52.514 13.7341 52.4067 13.6174C52.1734 13.3514 51.5994 12.9874 51.2307 12.8754C50.89 12.7681 50.2787 12.7588 49.952 12.8568C49.826 12.8941 48.608 13.5288 47.25 14.2614C45.1267 15.4141 44.744 15.6054 44.5387 15.6241C44.2587 15.6474 44.128 15.5914 44.0067 15.3861C43.918 15.2461 43.9134 15.1388 43.9134 13.7621C43.9134 12.1848 43.89 11.9281 43.694 11.5268C43.3767 10.8734 42.686 10.4674 41.8134 10.4208C41.258 10.3881 40.9034 10.4534 40.474 10.6634C40.0774 10.8594 39.8114 11.1348 39.6014 11.5734L39.4567 11.8768L39.4334 14.9801C39.41 18.0834 39.41 18.0834 39.3027 18.3354C39.172 18.6434 38.9854 18.9141 38.7474 19.1428C38.5327 19.3527 35.9334 20.7901 35.6207 20.8741C35.4387 20.9208 35.392 20.9161 35.2427 20.8368C34.9114 20.6594 34.9067 20.6361 34.9067 18.6668C34.9067 17.0521 34.8974 16.9028 34.818 16.7207C34.706 16.4781 34.58 16.4081 34.3047 16.4361C34.1227 16.4548 33.8567 16.5994 32.6947 17.3041C31.9247 17.7708 31.2247 18.1674 31.136 18.1814C30.9074 18.2234 30.674 18.1021 30.5854 17.8921C30.5294 17.7521 30.52 17.4534 30.5294 16.0628L30.5434 14.3968L30.702 14.0701C31.01 13.4401 31.15 13.3374 33.712 11.9001C35.0467 11.1488 36.0827 10.5327 36.2134 10.4208C37.3754 9.38479 37.0347 7.57413 35.546 6.83679C35.266 6.69679 35.1307 6.65946 34.832 6.64079C34.216 6.59879 34.0807 6.65013 32.6574 7.43879C31.948 7.83546 31.2994 8.18079 31.2154 8.20879C30.954 8.29746 30.814 8.27413 30.6227 8.10146L30.45 7.94279L30.4267 4.96079C30.3987 1.73146 30.4174 1.92746 30.1327 1.37213C29.9554 1.02212 29.6567 0.714121 29.218 0.429453C28.5647 0.00945556 28.0187 -0.0978785 27.44 0.0887899Z" stroke="white" stroke-width="2"/>
</g>
</svg>
