<svg  viewBox="0 0 56 56" fill="none" xmlns="http://www.w3.org/2000/svg">
<mask id="path-1-inside-1_6_90" fill="white">
<path fill-rule="evenodd" clip-rule="evenodd" d="M27.4399 0.0886536C27.0853 0.200653 26.4599 0.611317 26.2033 0.895985C26.0866 1.02665 25.9139 1.29265 25.8159 1.48865L25.6433 1.84332L25.6199 4.82999C25.5919 8.14332 25.6059 8.02665 25.2839 8.19465C25.0226 8.32999 24.8546 8.26465 23.4826 7.49465C22.7733 7.09798 22.0966 6.74799 21.9799 6.72465C21.6673 6.64999 21.0979 6.66399 20.8086 6.74799C19.2499 7.20532 18.7506 9.25399 19.9033 10.4347C20.0946 10.6307 20.5566 10.9107 22.3766 11.9467C23.6086 12.642 24.6959 13.2907 24.7986 13.3887C25.0413 13.6173 25.2699 13.9767 25.3819 14.3173C25.4753 14.5833 25.4799 14.714 25.4799 16.1747C25.4799 17.528 25.4706 17.766 25.4053 17.9013C25.2979 18.1253 25.1719 18.2 24.9013 18.2C24.6959 18.2 24.5326 18.1253 23.1886 17.402C22.3719 16.968 21.6346 16.5947 21.5459 16.5807C21.3359 16.548 21.0933 16.6646 20.9766 16.8607C20.8879 17.0007 20.8833 17.1127 20.8739 18.6993C20.8646 20.5147 20.8553 20.5707 20.6173 20.7387C20.4726 20.8413 20.1926 20.832 19.9593 20.7153C19.8519 20.6593 19.2266 20.3093 18.5733 19.936C17.2153 19.1567 16.9773 18.97 16.7299 18.4613C16.4639 17.9247 16.4593 17.8267 16.4919 15.12C16.5106 13.4913 16.5059 12.586 16.4733 12.4133C16.4453 12.2733 16.3519 12.0027 16.2633 11.816C16.0439 11.3493 15.7313 11.0553 15.1479 10.7567L14.6906 10.5233H14.1679C13.6733 10.5233 13.6313 10.5326 13.3326 10.6773C12.9079 10.8873 12.5953 11.214 12.3526 11.704L12.1566 12.1007L12.1333 13.762C12.1099 15.3067 12.1053 15.4327 12.0166 15.5727C11.8906 15.7873 11.6619 15.89 11.4286 15.8293C11.3306 15.806 10.1919 15.176 8.90394 14.4293C7.61128 13.6873 6.49594 13.048 6.41661 13.0107C6.14594 12.8753 5.78661 12.8193 5.33394 12.8427C4.90928 12.866 4.86728 12.88 4.36328 13.1273C3.93861 13.342 3.78928 13.4447 3.57928 13.6687C3.43928 13.8227 3.26194 14.07 3.18728 14.2193C3.05661 14.4853 3.05661 14.504 3.05661 15.3067V16.128L3.22928 16.4733C3.52794 17.08 3.58394 17.1173 6.22994 18.5546C7.54128 19.264 8.67528 19.8847 8.75928 19.9407C9.09061 20.1646 9.15128 20.5193 8.90394 20.776C8.81994 20.86 8.20394 21.2333 7.54128 21.6067C6.17394 22.372 5.98728 22.5213 5.70261 23.0953L5.52994 23.4453V24.0987C5.52994 24.7427 5.53461 24.766 5.67928 25.0693C5.88461 25.5033 6.19728 25.8253 6.62661 26.04C7.18194 26.32 7.67195 26.3807 8.25994 26.2453C8.53528 26.1847 8.90394 25.984 10.8686 24.8267C12.4646 23.8933 13.2346 23.464 13.4073 23.422C13.7806 23.3333 14.3499 23.352 14.6533 23.4687C14.7933 23.5247 15.4746 23.898 16.1699 24.2993C17.5559 25.1113 17.6679 25.2047 17.6259 25.5407C17.6119 25.6387 17.5513 25.7787 17.4906 25.858C17.4299 25.9327 16.7953 26.362 16.0766 26.8053C14.6859 27.6687 14.5599 27.7713 14.5599 28.0933C14.5599 28.434 14.6533 28.504 16.4033 29.512C17.3039 30.03 18.1206 30.4967 18.2186 30.5573L18.4006 30.6646L18.2186 30.7953C17.8873 31.038 15.1013 32.634 14.8539 32.718C14.5273 32.8347 13.8366 32.8347 13.5053 32.7227C13.3793 32.676 12.2873 32.06 11.0786 31.346C9.87461 30.6367 8.79194 30.0207 8.67994 29.9833C8.38128 29.876 7.89128 29.8433 7.55061 29.9087C7.16328 29.9833 6.52861 30.3287 6.21594 30.6273C6.05728 30.7813 5.90328 31.0007 5.79594 31.22L5.62328 31.5653V32.2467C5.62328 32.9187 5.62328 32.928 5.77728 33.2407C6.06194 33.8147 6.22061 33.9313 7.68128 34.664C9.00661 35.3313 9.21661 35.4667 9.26328 35.7233C9.29594 35.882 9.16994 36.12 8.99728 36.232C8.93661 36.2693 7.77928 36.9086 6.41661 37.6507C3.64461 39.1673 3.52794 39.242 3.24328 39.8253C3.03794 40.2313 2.96328 40.6886 3.00528 41.2626C3.03794 41.7293 3.14994 42.07 3.38328 42.3826C3.61661 42.7046 3.89661 42.8866 4.54061 43.1433C5.10061 43.3673 5.11461 43.372 5.62328 43.372C6.02461 43.3673 6.19728 43.3486 6.41661 43.2693C6.57061 43.218 7.77461 42.5646 9.09528 41.818C10.5233 41.0153 11.5686 40.4553 11.6713 40.4366C11.8953 40.3993 12.0726 40.4786 12.2126 40.6886C12.3199 40.8473 12.3199 40.866 12.3199 42.2613C12.3199 43.1293 12.3386 43.7733 12.3713 43.9226C12.5439 44.7393 13.1459 45.4393 13.8366 45.6166C14.4106 45.7613 14.8959 45.682 15.4699 45.346C15.9226 45.08 16.2446 44.7346 16.4593 44.296L16.6366 43.9366L16.6599 41.1366C16.6879 38.094 16.6693 38.2806 16.9633 37.7066C17.1873 37.268 17.4253 37.086 18.8393 36.2693C20.2346 35.4713 20.4073 35.4013 20.6639 35.532C20.9673 35.6907 20.9719 35.7186 20.9999 37.6833C21.0279 39.6433 21.0233 39.634 21.3266 39.76C21.4386 39.8067 21.5133 39.8067 21.6439 39.7693C21.7419 39.7366 22.4559 39.3073 23.2353 38.8033C24.0146 38.304 24.7286 37.8746 24.8313 37.8466C25.0786 37.7766 25.2979 37.8746 25.4006 38.094C25.4706 38.2386 25.4799 38.458 25.4799 39.8253C25.4799 41.286 25.4753 41.4166 25.3819 41.6826C25.2699 42.0233 25.0413 42.3826 24.7986 42.6113C24.6959 42.7046 23.6086 43.3533 22.3766 44.0533C20.7526 44.9726 20.0759 45.3786 19.9173 45.5326C19.2453 46.1906 19.0773 47.3153 19.5253 48.1973C19.6746 48.4913 20.0293 48.8786 20.2859 49.028C20.7759 49.3173 21.4946 49.4106 22.0313 49.252C22.1713 49.21 22.8433 48.86 23.5339 48.4773C24.8546 47.7353 25.0273 47.67 25.2839 47.8053C25.6059 47.9733 25.5919 47.8566 25.6199 51.17L25.6433 54.1566L25.8113 54.5066C26.0259 54.9453 26.2873 55.244 26.7306 55.5426C27.2159 55.8693 27.4399 55.958 27.8553 55.986C28.3313 56.0186 28.6579 55.9253 29.1666 55.6033C29.7686 55.2253 30.0533 54.894 30.2913 54.2966L30.4033 54.0166L30.4266 51.0533C30.4453 48.5333 30.4593 48.076 30.5199 47.9826C30.6226 47.8286 30.8746 47.726 31.0659 47.754C31.1593 47.7726 31.7566 48.0806 32.3959 48.44C33.7819 49.2286 33.8613 49.266 34.3093 49.3313C34.7806 49.4013 35.2006 49.3313 35.6393 49.1166C36.0453 48.916 36.3019 48.6406 36.5259 48.174C36.8106 47.586 36.7919 46.7366 36.4839 46.1066C36.2039 45.5326 36.0499 45.4253 33.6233 44.058C31.1593 42.672 31.0099 42.56 30.7019 41.93L30.5433 41.6033L30.5293 39.9373C30.5199 38.5466 30.5293 38.248 30.5853 38.108C30.6739 37.898 30.9073 37.7766 31.1359 37.8186C31.2246 37.8326 31.9246 38.2293 32.6946 38.696C33.9406 39.452 34.1133 39.5453 34.3326 39.564C34.5426 39.5826 34.5893 39.5686 34.6873 39.466C34.8833 39.27 34.9066 39.0833 34.9066 37.506C34.9066 35.896 34.9206 35.784 35.1586 35.63C35.2473 35.5693 35.3453 35.5553 35.5039 35.5693C35.6906 35.588 35.9893 35.7373 37.1933 36.428C38.0706 36.9273 38.7333 37.3333 38.8406 37.4406C39.0926 37.6926 39.2793 38.01 39.3866 38.3553C39.4753 38.6306 39.4799 38.7986 39.4799 41.2486C39.4799 43.2926 39.4939 43.8946 39.5453 44.0813C39.6433 44.4546 39.8859 44.87 40.1613 45.1266C41.0479 45.962 42.4246 45.9293 43.2926 45.0473C43.5726 44.7626 43.7919 44.338 43.8619 43.9413C43.8899 43.7826 43.9133 43.0873 43.9133 42.3406C43.9133 40.922 43.9273 40.8333 44.1559 40.6746C44.2119 40.6326 44.3566 40.6 44.4733 40.6C44.6646 40.6 44.9026 40.726 46.9466 41.888C48.1926 42.5926 49.3359 43.2133 49.4853 43.2646C49.8819 43.4 50.5493 43.4 50.9553 43.26C51.7766 42.9846 52.3086 42.5973 52.5559 42.084C52.7286 41.7386 52.7753 41.4913 52.7799 41.0153C52.7799 40.4786 52.7193 40.1753 52.5279 39.7833C52.2526 39.228 52.1219 39.1346 49.5786 37.618C47.1379 36.1666 47.0399 36.0967 47.0399 35.784C47.0399 35.588 47.1519 35.406 47.3526 35.2707C47.4506 35.21 47.9779 34.9067 48.5286 34.5986C49.6299 33.9827 49.7979 33.8613 50.0453 33.4833C50.3066 33.0913 50.3999 32.774 50.3999 32.27C50.3999 31.416 50.0453 30.716 49.3826 30.268C48.9066 29.946 48.3373 29.8387 47.7866 29.9647C47.6653 29.9927 46.6013 30.5573 45.2433 31.3133C43.6239 32.2187 42.8259 32.6387 42.6299 32.69C42.2893 32.774 41.7759 32.7787 41.4586 32.6993C41.0946 32.606 38.5093 31.2433 38.3273 31.052C38.1266 30.8467 38.1173 30.5947 38.2946 30.3847C38.3599 30.3053 38.9293 29.9507 39.6573 29.5353C40.3433 29.1433 40.9733 28.7747 41.0573 28.714C41.3933 28.462 41.4353 28.0607 41.1506 27.79C41.0666 27.706 40.4599 27.3093 39.8066 26.9033C39.1533 26.4973 38.5653 26.1193 38.5093 26.068C38.1826 25.7787 38.1919 25.41 38.5326 25.102C38.7566 24.8967 41.1226 23.4127 41.4166 23.296C41.7433 23.1607 42.3546 23.142 42.7093 23.254C42.8306 23.2913 43.9226 23.912 45.1359 24.626C46.3493 25.3447 47.4319 25.9793 47.5393 26.0353C47.8379 26.1847 48.3699 26.2547 48.7713 26.194C50.4699 25.928 51.1419 23.7066 49.8913 22.456C49.6813 22.2413 49.4106 22.0686 48.4913 21.5647C47.8659 21.2193 47.2826 20.8787 47.1986 20.804C46.9419 20.5753 46.9419 20.216 47.1939 19.9827C47.2499 19.9313 48.3793 19.278 49.6999 18.5266C52.3786 17.01 52.4673 16.9447 52.7706 16.338L52.9433 15.988V15.26V14.532L52.7706 14.182C52.6726 13.986 52.5139 13.734 52.4066 13.6173C52.1733 13.3513 51.5993 12.9873 51.2306 12.8753C50.8899 12.768 50.2786 12.7587 49.9519 12.8567C49.8259 12.894 48.6079 13.5287 47.2499 14.2613C45.1266 15.414 44.7439 15.6053 44.5386 15.624C44.2586 15.6473 44.1279 15.5913 44.0066 15.386C43.9179 15.246 43.9133 15.1387 43.9133 13.762C43.9133 12.1847 43.8899 11.928 43.6939 11.5267C43.3766 10.8733 42.6859 10.4673 41.8133 10.4207C41.2579 10.388 40.9033 10.4533 40.4739 10.6633C40.0773 10.8593 39.8113 11.1347 39.6013 11.5733L39.4566 11.8767L39.4333 14.98C39.4099 18.0833 39.4099 18.0833 39.3026 18.3353C39.1719 18.6433 38.9853 18.914 38.7473 19.1427C38.5326 19.3526 35.9333 20.79 35.6206 20.874C35.4386 20.9207 35.3919 20.916 35.2426 20.8367C34.9113 20.6593 34.9066 20.636 34.9066 18.6667C34.9066 17.052 34.8973 16.9027 34.8179 16.7206C34.7059 16.478 34.5799 16.408 34.3046 16.436C34.1226 16.4547 33.8566 16.5993 32.6946 17.304C31.9246 17.7707 31.2246 18.1673 31.1359 18.1813C30.9073 18.2233 30.6739 18.102 30.5853 17.892C30.5293 17.752 30.5199 17.4533 30.5293 16.0627L30.5433 14.3967L30.7019 14.07C31.0099 13.44 31.1499 13.3373 33.7119 11.9C35.0466 11.1487 36.0826 10.5326 36.2133 10.4207C37.3753 9.38465 37.0346 7.57399 35.5459 6.83665C35.2659 6.69665 35.1306 6.65932 34.8319 6.64065C34.2159 6.59865 34.0806 6.64999 32.6573 7.43865C31.9479 7.83532 31.2993 8.18065 31.2153 8.20865C30.9539 8.29732 30.8139 8.27399 30.6226 8.10132L30.4499 7.94265L30.4266 4.96065C30.3986 1.73132 30.4173 1.92732 30.1326 1.37199C29.9553 1.02198 29.6566 0.713985 29.2179 0.429317C28.5646 0.00931931 28.0186 -0.0980148 27.4399 0.0886536Z"/>
</mask>
<path fill-rule="evenodd" clip-rule="evenodd" d="M27.4399 0.0886536C27.0853 0.200653 26.4599 0.611317 26.2033 0.895985C26.0866 1.02665 25.9139 1.29265 25.8159 1.48865L25.6433 1.84332L25.6199 4.82999C25.5919 8.14332 25.6059 8.02665 25.2839 8.19465C25.0226 8.32999 24.8546 8.26465 23.4826 7.49465C22.7733 7.09798 22.0966 6.74799 21.9799 6.72465C21.6673 6.64999 21.0979 6.66399 20.8086 6.74799C19.2499 7.20532 18.7506 9.25399 19.9033 10.4347C20.0946 10.6307 20.5566 10.9107 22.3766 11.9467C23.6086 12.642 24.6959 13.2907 24.7986 13.3887C25.0413 13.6173 25.2699 13.9767 25.3819 14.3173C25.4753 14.5833 25.4799 14.714 25.4799 16.1747C25.4799 17.528 25.4706 17.766 25.4053 17.9013C25.2979 18.1253 25.1719 18.2 24.9013 18.2C24.6959 18.2 24.5326 18.1253 23.1886 17.402C22.3719 16.968 21.6346 16.5947 21.5459 16.5807C21.3359 16.548 21.0933 16.6646 20.9766 16.8607C20.8879 17.0007 20.8833 17.1127 20.8739 18.6993C20.8646 20.5147 20.8553 20.5707 20.6173 20.7387C20.4726 20.8413 20.1926 20.832 19.9593 20.7153C19.8519 20.6593 19.2266 20.3093 18.5733 19.936C17.2153 19.1567 16.9773 18.97 16.7299 18.4613C16.4639 17.9247 16.4593 17.8267 16.4919 15.12C16.5106 13.4913 16.5059 12.586 16.4733 12.4133C16.4453 12.2733 16.3519 12.0027 16.2633 11.816C16.0439 11.3493 15.7313 11.0553 15.1479 10.7567L14.6906 10.5233H14.1679C13.6733 10.5233 13.6313 10.5326 13.3326 10.6773C12.9079 10.8873 12.5953 11.214 12.3526 11.704L12.1566 12.1007L12.1333 13.762C12.1099 15.3067 12.1053 15.4327 12.0166 15.5727C11.8906 15.7873 11.6619 15.89 11.4286 15.8293C11.3306 15.806 10.1919 15.176 8.90394 14.4293C7.61128 13.6873 6.49594 13.048 6.41661 13.0107C6.14594 12.8753 5.78661 12.8193 5.33394 12.8427C4.90928 12.866 4.86728 12.88 4.36328 13.1273C3.93861 13.342 3.78928 13.4447 3.57928 13.6687C3.43928 13.8227 3.26194 14.07 3.18728 14.2193C3.05661 14.4853 3.05661 14.504 3.05661 15.3067V16.128L3.22928 16.4733C3.52794 17.08 3.58394 17.1173 6.22994 18.5546C7.54128 19.264 8.67528 19.8847 8.75928 19.9407C9.09061 20.1646 9.15128 20.5193 8.90394 20.776C8.81994 20.86 8.20394 21.2333 7.54128 21.6067C6.17394 22.372 5.98728 22.5213 5.70261 23.0953L5.52994 23.4453V24.0987C5.52994 24.7427 5.53461 24.766 5.67928 25.0693C5.88461 25.5033 6.19728 25.8253 6.62661 26.04C7.18194 26.32 7.67195 26.3807 8.25994 26.2453C8.53528 26.1847 8.90394 25.984 10.8686 24.8267C12.4646 23.8933 13.2346 23.464 13.4073 23.422C13.7806 23.3333 14.3499 23.352 14.6533 23.4687C14.7933 23.5247 15.4746 23.898 16.1699 24.2993C17.5559 25.1113 17.6679 25.2047 17.6259 25.5407C17.6119 25.6387 17.5513 25.7787 17.4906 25.858C17.4299 25.9327 16.7953 26.362 16.0766 26.8053C14.6859 27.6687 14.5599 27.7713 14.5599 28.0933C14.5599 28.434 14.6533 28.504 16.4033 29.512C17.3039 30.03 18.1206 30.4967 18.2186 30.5573L18.4006 30.6646L18.2186 30.7953C17.8873 31.038 15.1013 32.634 14.8539 32.718C14.5273 32.8347 13.8366 32.8347 13.5053 32.7227C13.3793 32.676 12.2873 32.06 11.0786 31.346C9.87461 30.6367 8.79194 30.0207 8.67994 29.9833C8.38128 29.876 7.89128 29.8433 7.55061 29.9087C7.16328 29.9833 6.52861 30.3287 6.21594 30.6273C6.05728 30.7813 5.90328 31.0007 5.79594 31.22L5.62328 31.5653V32.2467C5.62328 32.9187 5.62328 32.928 5.77728 33.2407C6.06194 33.8147 6.22061 33.9313 7.68128 34.664C9.00661 35.3313 9.21661 35.4667 9.26328 35.7233C9.29594 35.882 9.16994 36.12 8.99728 36.232C8.93661 36.2693 7.77928 36.9086 6.41661 37.6507C3.64461 39.1673 3.52794 39.242 3.24328 39.8253C3.03794 40.2313 2.96328 40.6886 3.00528 41.2626C3.03794 41.7293 3.14994 42.07 3.38328 42.3826C3.61661 42.7046 3.89661 42.8866 4.54061 43.1433C5.10061 43.3673 5.11461 43.372 5.62328 43.372C6.02461 43.3673 6.19728 43.3486 6.41661 43.2693C6.57061 43.218 7.77461 42.5646 9.09528 41.818C10.5233 41.0153 11.5686 40.4553 11.6713 40.4366C11.8953 40.3993 12.0726 40.4786 12.2126 40.6886C12.3199 40.8473 12.3199 40.866 12.3199 42.2613C12.3199 43.1293 12.3386 43.7733 12.3713 43.9226C12.5439 44.7393 13.1459 45.4393 13.8366 45.6166C14.4106 45.7613 14.8959 45.682 15.4699 45.346C15.9226 45.08 16.2446 44.7346 16.4593 44.296L16.6366 43.9366L16.6599 41.1366C16.6879 38.094 16.6693 38.2806 16.9633 37.7066C17.1873 37.268 17.4253 37.086 18.8393 36.2693C20.2346 35.4713 20.4073 35.4013 20.6639 35.532C20.9673 35.6907 20.9719 35.7186 20.9999 37.6833C21.0279 39.6433 21.0233 39.634 21.3266 39.76C21.4386 39.8067 21.5133 39.8067 21.6439 39.7693C21.7419 39.7366 22.4559 39.3073 23.2353 38.8033C24.0146 38.304 24.7286 37.8746 24.8313 37.8466C25.0786 37.7766 25.2979 37.8746 25.4006 38.094C25.4706 38.2386 25.4799 38.458 25.4799 39.8253C25.4799 41.286 25.4753 41.4166 25.3819 41.6826C25.2699 42.0233 25.0413 42.3826 24.7986 42.6113C24.6959 42.7046 23.6086 43.3533 22.3766 44.0533C20.7526 44.9726 20.0759 45.3786 19.9173 45.5326C19.2453 46.1906 19.0773 47.3153 19.5253 48.1973C19.6746 48.4913 20.0293 48.8786 20.2859 49.028C20.7759 49.3173 21.4946 49.4106 22.0313 49.252C22.1713 49.21 22.8433 48.86 23.5339 48.4773C24.8546 47.7353 25.0273 47.67 25.2839 47.8053C25.6059 47.9733 25.5919 47.8566 25.6199 51.17L25.6433 54.1566L25.8113 54.5066C26.0259 54.9453 26.2873 55.244 26.7306 55.5426C27.2159 55.8693 27.4399 55.958 27.8553 55.986C28.3313 56.0186 28.6579 55.9253 29.1666 55.6033C29.7686 55.2253 30.0533 54.894 30.2913 54.2966L30.4033 54.0166L30.4266 51.0533C30.4453 48.5333 30.4593 48.076 30.5199 47.9826C30.6226 47.8286 30.8746 47.726 31.0659 47.754C31.1593 47.7726 31.7566 48.0806 32.3959 48.44C33.7819 49.2286 33.8613 49.266 34.3093 49.3313C34.7806 49.4013 35.2006 49.3313 35.6393 49.1166C36.0453 48.916 36.3019 48.6406 36.5259 48.174C36.8106 47.586 36.7919 46.7366 36.4839 46.1066C36.2039 45.5326 36.0499 45.4253 33.6233 44.058C31.1593 42.672 31.0099 42.56 30.7019 41.93L30.5433 41.6033L30.5293 39.9373C30.5199 38.5466 30.5293 38.248 30.5853 38.108C30.6739 37.898 30.9073 37.7766 31.1359 37.8186C31.2246 37.8326 31.9246 38.2293 32.6946 38.696C33.9406 39.452 34.1133 39.5453 34.3326 39.564C34.5426 39.5826 34.5893 39.5686 34.6873 39.466C34.8833 39.27 34.9066 39.0833 34.9066 37.506C34.9066 35.896 34.9206 35.784 35.1586 35.63C35.2473 35.5693 35.3453 35.5553 35.5039 35.5693C35.6906 35.588 35.9893 35.7373 37.1933 36.428C38.0706 36.9273 38.7333 37.3333 38.8406 37.4406C39.0926 37.6926 39.2793 38.01 39.3866 38.3553C39.4753 38.6306 39.4799 38.7986 39.4799 41.2486C39.4799 43.2926 39.4939 43.8946 39.5453 44.0813C39.6433 44.4546 39.8859 44.87 40.1613 45.1266C41.0479 45.962 42.4246 45.9293 43.2926 45.0473C43.5726 44.7626 43.7919 44.338 43.8619 43.9413C43.8899 43.7826 43.9133 43.0873 43.9133 42.3406C43.9133 40.922 43.9273 40.8333 44.1559 40.6746C44.2119 40.6326 44.3566 40.6 44.4733 40.6C44.6646 40.6 44.9026 40.726 46.9466 41.888C48.1926 42.5926 49.3359 43.2133 49.4853 43.2646C49.8819 43.4 50.5493 43.4 50.9553 43.26C51.7766 42.9846 52.3086 42.5973 52.5559 42.084C52.7286 41.7386 52.7753 41.4913 52.7799 41.0153C52.7799 40.4786 52.7193 40.1753 52.5279 39.7833C52.2526 39.228 52.1219 39.1346 49.5786 37.618C47.1379 36.1666 47.0399 36.0967 47.0399 35.784C47.0399 35.588 47.1519 35.406 47.3526 35.2707C47.4506 35.21 47.9779 34.9067 48.5286 34.5986C49.6299 33.9827 49.7979 33.8613 50.0453 33.4833C50.3066 33.0913 50.3999 32.774 50.3999 32.27C50.3999 31.416 50.0453 30.716 49.3826 30.268C48.9066 29.946 48.3373 29.8387 47.7866 29.9647C47.6653 29.9927 46.6013 30.5573 45.2433 31.3133C43.6239 32.2187 42.8259 32.6387 42.6299 32.69C42.2893 32.774 41.7759 32.7787 41.4586 32.6993C41.0946 32.606 38.5093 31.2433 38.3273 31.052C38.1266 30.8467 38.1173 30.5947 38.2946 30.3847C38.3599 30.3053 38.9293 29.9507 39.6573 29.5353C40.3433 29.1433 40.9733 28.7747 41.0573 28.714C41.3933 28.462 41.4353 28.0607 41.1506 27.79C41.0666 27.706 40.4599 27.3093 39.8066 26.9033C39.1533 26.4973 38.5653 26.1193 38.5093 26.068C38.1826 25.7787 38.1919 25.41 38.5326 25.102C38.7566 24.8967 41.1226 23.4127 41.4166 23.296C41.7433 23.1607 42.3546 23.142 42.7093 23.254C42.8306 23.2913 43.9226 23.912 45.1359 24.626C46.3493 25.3447 47.4319 25.9793 47.5393 26.0353C47.8379 26.1847 48.3699 26.2547 48.7713 26.194C50.4699 25.928 51.1419 23.7066 49.8913 22.456C49.6813 22.2413 49.4106 22.0686 48.4913 21.5647C47.8659 21.2193 47.2826 20.8787 47.1986 20.804C46.9419 20.5753 46.9419 20.216 47.1939 19.9827C47.2499 19.9313 48.3793 19.278 49.6999 18.5266C52.3786 17.01 52.4673 16.9447 52.7706 16.338L52.9433 15.988V15.26V14.532L52.7706 14.182C52.6726 13.986 52.5139 13.734 52.4066 13.6173C52.1733 13.3513 51.5993 12.9873 51.2306 12.8753C50.8899 12.768 50.2786 12.7587 49.9519 12.8567C49.8259 12.894 48.6079 13.5287 47.2499 14.2613C45.1266 15.414 44.7439 15.6053 44.5386 15.624C44.2586 15.6473 44.1279 15.5913 44.0066 15.386C43.9179 15.246 43.9133 15.1387 43.9133 13.762C43.9133 12.1847 43.8899 11.928 43.6939 11.5267C43.3766 10.8733 42.6859 10.4673 41.8133 10.4207C41.2579 10.388 40.9033 10.4533 40.4739 10.6633C40.0773 10.8593 39.8113 11.1347 39.6013 11.5733L39.4566 11.8767L39.4333 14.98C39.4099 18.0833 39.4099 18.0833 39.3026 18.3353C39.1719 18.6433 38.9853 18.914 38.7473 19.1427C38.5326 19.3526 35.9333 20.79 35.6206 20.874C35.4386 20.9207 35.3919 20.916 35.2426 20.8367C34.9113 20.6593 34.9066 20.636 34.9066 18.6667C34.9066 17.052 34.8973 16.9027 34.8179 16.7206C34.7059 16.478 34.5799 16.408 34.3046 16.436C34.1226 16.4547 33.8566 16.5993 32.6946 17.304C31.9246 17.7707 31.2246 18.1673 31.1359 18.1813C30.9073 18.2233 30.6739 18.102 30.5853 17.892C30.5293 17.752 30.5199 17.4533 30.5293 16.0627L30.5433 14.3967L30.7019 14.07C31.0099 13.44 31.1499 13.3373 33.7119 11.9C35.0466 11.1487 36.0826 10.5326 36.2133 10.4207C37.3753 9.38465 37.0346 7.57399 35.5459 6.83665C35.2659 6.69665 35.1306 6.65932 34.8319 6.64065C34.2159 6.59865 34.0806 6.64999 32.6573 7.43865C31.9479 7.83532 31.2993 8.18065 31.2153 8.20865C30.9539 8.29732 30.8139 8.27399 30.6226 8.10132L30.4499 7.94265L30.4266 4.96065C30.3986 1.73132 30.4173 1.92732 30.1326 1.37199C29.9553 1.02198 29.6566 0.713985 29.2179 0.429317C28.5646 0.00931931 28.0186 -0.0980148 27.4399 0.0886536Z" stroke="black" stroke-width="2" mask="url(#path-1-inside-1_6_90)"/>
</svg>
